# xmcd
#
# Track frame offsets: 
#        150
#        11154
#        22078
#        35275
#        51675
#        65691
#        78443
#        88525
#        96933
#        110496
#        121191
#        133710
#        154183
#        164286
#        174985
#        193652
#        204923
#        217877
#
# Disc length: 2976 seconds
#
# Revision: 0
# Processed by: cddbd v1.5.2PL0 Copyright (c) Steve Scherf et al.
# Submitted via: ExactAudioCopy v1.3
#
DISCID=f60b9e12
DTITLE=Nico Brina - The Boogie Woogie Collection
DYEAR=2009
DGENRE=Boogie Woogie, Piano Blues
TTITLE0=Rock The Boogie
TTITLE1=Boogie Woogie Feelings
TTITLE2=Don't Stop The Boogie
TTITLE3=It's Rockin' Time
TTITLE4=Straight Ahead
TTITLE5=Just Easy Going
TTITLE6=Steam Roller Boogie
TTITLE7=Jump Ahead Boogie
TTITLE8=Back Seat Boogie
TTITLE9=Hip Shaking Boogie
TTITLE10=Walk On Boogie
TTITLE11=Nico's Highspeed Boogie
TTITLE12=Roll On! Boogie
TTITLE13=Fasten Seat Belt Boogie
TTITLE14=Sunday Morning Boogie
TTITLE15=Nice To Be
TTITLE16=Blues For Ruedi
TTITLE17=Nico's High-Speed Boogie
EXTD=
EXTT0=
EXTT1=
EXTT2=
EXTT3=
EXTT4=
EXTT5=
EXTT6=
EXTT7=
EXTT8=
EXTT9=
EXTT10=
EXTT11=
EXTT12=
EXTT13=
EXTT14=
EXTT15=
EXTT16=
EXTT17=
PLAYORDER=
